<?xml version="1.0" encoding="utf-8"?>
<!-- Generator: Adobe Illustrator 26.2.1, SVG Export Plug-In . SVG Version: 6.00 Build 0)  -->
<svg version="1.1" id="Layer_1" xmlns="http://www.w3.org/2000/svg" xmlns:xlink="http://www.w3.org/1999/xlink" x="0px" y="0px"
	 viewBox="0 0 190 80" style="enable-background:new 0 0 190 80;" xml:space="preserve">
<style type="text/css">
	.st0{fill:#0094FF;}
	.st1{fill:#003778;}
</style>
<polygon class="st0" points="15.3,54.7 15.3,37.4 6.7,37.4 6.7,63.3 32.6,63.3 32.6,54.7 "/>
<polygon class="st1" points="49.8,20.1 6.7,20.1 6.7,33.1 15.3,33.1 15.3,28.8 41.2,28.8 41.2,54.7 36.9,54.7 36.9,63.3 49.8,63.3 
	"/>
<path class="st1" d="M58.5,20h13.3v32.2H91v11.1H58.5V20z"/>
<path class="st1" d="M99.5,20H133v11.1h-20.1v5.4h17.3v10.3h-17.3v16.5H99.5V20z"/>
<path class="st0" d="M152.7,40.3l-14.2-20.2h15.6l6.5,11.7l6.4-11.7h14.7l-13.8,20.3l15.4,22.8h-16L160,50.4l-7.6,12.9h-15.2
	L152.7,40.3z"/>
</svg>
